<?xml version="1.0" encoding="UTF-8" standalone="no"?>
<!-- Created with Inkscape (http://www.inkscape.org/) -->

<svg
   xmlns:dc="http://purl.org/dc/elements/1.1/"
   xmlns:cc="http://creativecommons.org/ns#"
   xmlns:rdf="http://www.w3.org/1999/02/22-rdf-syntax-ns#"
   xmlns:svg="http://www.w3.org/2000/svg"
   xmlns="http://www.w3.org/2000/svg"
   xmlns:sodipodi="http://sodipodi.sourceforge.net/DTD/sodipodi-0.dtd"
   xmlns:inkscape="http://www.inkscape.org/namespaces/inkscape"
   version="1.1"
   id="svg2"
   xml:space="preserve"
   width="210.00182"
   height="56.438"
   viewBox="0 0 210.00182 56.438"
   sodipodi:docname="Sécurité publique Québec.svg"
   inkscape:version="0.92.2 (5c3e80d, 2017-08-06)"><metadata
     id="metadata8"><rdf:RDF><cc:Work
         rdf:about=""><dc:format>image/svg+xml</dc:format><dc:type
           rdf:resource="http://purl.org/dc/dcmitype/StillImage" /><dc:title></dc:title></cc:Work></rdf:RDF></metadata><defs
     id="defs6"><clipPath
       clipPathUnits="userSpaceOnUse"
       id="clipPath72"><path
         d="M 0,0 H 612 V 792 H 0 Z"
         id="path70"
         inkscape:connector-curvature="0" /></clipPath><clipPath
       clipPathUnits="userSpaceOnUse"
       id="clipPath132"><path
         d="M 0,0 H 612 V 792 H 0 Z"
         id="path130"
         inkscape:connector-curvature="0" /></clipPath><clipPath
       clipPathUnits="userSpaceOnUse"
       id="clipPath168"><path
         d="M 0,0 H 612 V 792 H 0 Z"
         id="path166"
         inkscape:connector-curvature="0" /></clipPath><clipPath
       clipPathUnits="userSpaceOnUse"
       id="clipPath190"><path
         d="M 0,0 H 612 V 792 H 0 Z"
         id="path188"
         inkscape:connector-curvature="0" /></clipPath><clipPath
       clipPathUnits="userSpaceOnUse"
       id="clipPath204"><path
         d="M 0,0 H 612 V 792 H 0 Z"
         id="path202"
         inkscape:connector-curvature="0" /></clipPath><clipPath
       clipPathUnits="userSpaceOnUse"
       id="clipPath218"><path
         d="M 0,0 H 612 V 792 H 0 Z"
         id="path216"
         inkscape:connector-curvature="0" /></clipPath><clipPath
       clipPathUnits="userSpaceOnUse"
       id="clipPath232"><path
         d="M 0,0 H 612 V 792 H 0 Z"
         id="path230"
         inkscape:connector-curvature="0" /></clipPath></defs><sodipodi:namedview
     pagecolor="#ffffff"
     bordercolor="#666666"
     borderopacity="1"
     objecttolerance="10"
     gridtolerance="10"
     guidetolerance="10"
     inkscape:pageopacity="0"
     inkscape:pageshadow="2"
     inkscape:window-width="1920"
     inkscape:window-height="1017"
     id="namedview4"
     showgrid="false"
     fit-margin-left="5"
     fit-margin-top="5"
     fit-margin-bottom="5"
     fit-margin-right="5"
     inkscape:zoom="1.7878788"
     inkscape:cx="38.964229"
     inkscape:cy="64.79025"
     inkscape:window-x="-8"
     inkscape:window-y="-8"
     inkscape:window-maximized="1"
     inkscape:current-layer="g10" /><g
     id="g10"
     inkscape:groupmode="layer"
     inkscape:label="Rapport annuel de gestion 2018-2019 du ministère de la Sécurité publique"
     transform="matrix(1.3333333,0,0,-1.3333333,-38.67883,94.948034)"><g
       id="g406"
       transform="matrix(1.0629318,0,0,1.0629318,-6.7815148,-3.1495321)"><g
         id="g66"><g
           id="g68"
           clip-path="url(#clipPath72)"><g
             id="g74"
             transform="translate(93.6649,40.0822)"><path
               d="M 0,0 -0.001,8.855 H -0.067 C -0.383,8.565 -1.546,8.542 -2.041,8.542 H -2.896 V 8.47 c 0.988,-0.605 0.854,-1.503 0.854,-2.619 l 10e-4,-3.747 c 0,-1.874 -1.84,-3.189 -3.324,-3.189 -1.954,0 -2.767,1.386 -2.767,3.626 v 6.314 h -0.066 c -0.315,-0.29 -1.487,-0.313 -1.98,-0.313 h -0.848 V 8.47 c 0.989,-0.605 0.853,-1.503 0.853,-2.619 V 2.115 c 0,-3.419 1.483,-5.043 4.135,-5.043 1.572,0 3.188,0.558 3.997,1.89 v -1.614 h 2.894 v 0.071 C -0.135,-2.021 0,-1.119 0,0"
               style="fill:#000000;fill-opacity:1;fill-rule:nonzero;stroke:none"
               id="path76"
               inkscape:connector-curvature="0" /></g><g
             id="g78"
             transform="translate(98.1524,44.817)"><path
               d="M 0,0 C 0.271,1.522 1.394,2.489 2.9,2.489 4.519,2.489 5.553,1.691 5.799,0 Z m 8.162,-1.41 c 0.088,3.124 -2.003,5.483 -5.06,5.483 -3.349,0 -5.617,-2.43 -5.617,-5.802 0,-3.396 2.628,-5.982 6.448,-5.982 1.057,0 2.136,0.169 3.103,0.601 l 1.126,2.28 H 8.093 C 7.059,-5.711 5.757,-6.127 4.406,-6.127 c -2.54,0 -4.45,1.736 -4.495,4.717 z"
               style="fill:#000000;fill-opacity:1;fill-rule:nonzero;stroke:none"
               id="path80"
               inkscape:connector-curvature="0" /></g><g
             id="g82"
             transform="translate(108.0964,54.0833)"><path
               d="m 0,0 c 0.538,0 1.636,0.033 1.968,0.361 h 0.068 v -15.338 c 0.603,-0.171 1.229,-0.29 1.854,-0.29 2.456,0 3.862,1.717 3.862,4.113 0,2.346 -1.094,4.16 -3.348,4.16 -0.715,0 -1.274,-0.192 -1.876,-0.531 l 1.207,2.063 c 0.511,0.195 1.047,0.268 1.583,0.268 2.549,0 4.712,-2.21 4.712,-5.525 0,-3.797 -2.567,-6.255 -6.632,-6.255 -1.518,0 -2.976,0.268 -4.076,0.439 v 0.073 c 0.74,0.343 0.673,1.145 0.673,1.946 v 11.149 c 0,1.118 0.134,2.685 -0.831,3.293 V 0 Z"
               style="fill:#000000;fill-opacity:1;fill-rule:nonzero;stroke:none"
               id="path84"
               inkscape:connector-curvature="0" /></g><g
             id="g86"
             transform="translate(122.1177,44.817)"><path
               d="M 0,0 C 0.271,1.522 1.393,2.489 2.9,2.489 4.52,2.489 5.553,1.691 5.802,0 Z m 8.16,-1.41 c 0.091,3.124 -2.001,5.483 -5.057,5.483 -3.351,0 -5.62,-2.43 -5.62,-5.802 0,-3.396 2.629,-5.982 6.451,-5.982 1.057,0 2.136,0.169 3.103,0.601 L 8.16,-4.83 H 8.094 C 7.059,-5.711 5.755,-6.127 4.405,-6.127 c -2.54,0 -4.449,1.736 -4.495,4.717 z"
               style="fill:#000000;fill-opacity:1;fill-rule:nonzero;stroke:none"
               id="path88"
               inkscape:connector-curvature="0" /></g><g
             id="g90"
             transform="translate(140.3302,46.1112)"><path
               d="m 0,0 h -0.066 c -0.653,0.805 -1.732,1.195 -2.744,1.195 -2.18,0 -3.752,-1.655 -3.752,-3.969 0,-2.797 2.18,-4.647 4.674,-4.647 1.147,0 2.406,0.487 3.282,1.195 H 1.462 L 0.294,-8.525 c -0.947,-0.385 -1.98,-0.48 -2.97,-0.48 -3.46,0 -6.164,2.437 -6.164,5.6 0,4.184 3.019,6.183 6.413,6.183 0.81,0 1.641,-0.095 2.427,-0.287 z"
               style="fill:#000000;fill-opacity:1;fill-rule:nonzero;stroke:none"
               id="path92"
               inkscape:connector-curvature="0" /></g><g
             id="g94"
             transform="translate(103.508,50.8962)"><path
               d="M 0,0 V 2.434 C -1.473,1.774 -2.84,0.539 -3.755,-0.662 V -1.61 C -1.567,-0.135 0,-0.067 0,0"
               style="fill:#000000;fill-opacity:1;fill-rule:nonzero;stroke:none"
               id="path96"
               inkscape:connector-curvature="0" /></g><g
             id="g98"
             transform="translate(73.3889,38.778)"><path
               d="m 0,0 c -3.394,0 -5.756,3.831 -5.756,7.082 0,0.035 0,0.334 0.001,0.368 0.041,3.151 2.082,6.108 5.642,6.108 3.746,0 5.679,-3.543 5.711,-6.904 V 6.305 C 5.598,2.726 3.372,0 0,0 M 11.633,-3.721 C 9.128,-4.132 6.718,-3.341 4.158,-0.413 6.631,0.829 8.161,3.921 8.161,6.792 8.161,6.821 8.16,7.12 8.16,7.151 8.116,12.063 4.424,15.31 0.022,15.31 c -4.41,0 -8.307,-3.379 -8.34,-8.333 v -0.33 c 0,-4.82 3.575,-8.399 7.958,-8.399 0.629,0 1.236,0.1 1.843,0.244 2.871,-2.688 5.431,-3.835 7.642,-3.569 1.048,0.128 2.157,0.544 2.822,1.408 z"
               style="fill:#000000;fill-opacity:1;fill-rule:nonzero;stroke:none"
               id="path100"
               inkscape:connector-curvature="0" /></g><g
             id="g102"
             transform="translate(43.7066,64.307)"><path
               d="m 0,0 c -0.582,0.262 -1.176,0.388 -1.792,0.388 -0.971,0 -1.461,-0.297 -1.461,-0.811 0,-0.559 0.548,-0.616 1.381,-1.015 1.153,-0.56 1.701,-1.039 1.701,-2.101 0,-1.667 -1.336,-2.842 -3.687,-2.842 -0.936,0 -1.816,0.137 -2.649,0.433 l 0.457,1.633 c 0.639,-0.32 1.256,-0.491 1.872,-0.491 1.119,0 1.747,0.4 1.747,0.993 0,0.685 -0.64,0.811 -1.724,1.267 -0.891,0.377 -1.336,0.982 -1.336,1.861 0,1.484 1.29,2.58 3.334,2.58 1.13,0 2.032,-0.126 2.648,-0.354 z"
               style="fill:#000000;fill-opacity:1;fill-rule:nonzero;stroke:none"
               id="path104"
               inkscape:connector-curvature="0" /></g><g
             id="g106"
             transform="translate(46.2522,60.517)"><path
               d="m 0,0 c 0.08,-0.867 0.559,-1.267 1.507,-1.267 0.628,0 1.324,0.148 1.998,0.445 L 3.276,-2.272 C 2.58,-2.488 1.85,-2.603 1.108,-2.603 c -1.85,0 -2.946,1.085 -2.946,2.751 0,0.96 0.411,1.952 1.05,2.58 0.617,0.605 1.507,0.925 2.615,0.925 C 3.459,3.653 4.35,2.728 4.35,1.119 4.35,0.788 4.304,0.411 4.212,0 Z m 2.672,1.404 c 0,0.651 -0.4,1.062 -1.028,1.062 C 1.016,2.466 0.491,1.975 0.263,1.13 H 2.648 C 2.66,1.222 2.672,1.313 2.672,1.404 M 1.792,5.913 H 3.927 V 5.662 L 2.044,4.269 H 0.697 v 0.137 z"
               style="fill:#000000;fill-opacity:1;fill-rule:nonzero;stroke:none"
               id="path108"
               inkscape:connector-curvature="0" /></g><g
             id="g110"
             transform="translate(56.4119,62.3435)"><path
               d="m 0,0 c -0.434,0.205 -0.856,0.308 -1.256,0.308 -1.096,0 -1.815,-0.685 -1.815,-1.689 0,-0.879 0.583,-1.439 1.519,-1.439 0.376,0 0.753,0.092 1.164,0.274 l -0.24,-1.552 c -0.616,-0.16 -1.164,-0.24 -1.678,-0.24 -1.804,0 -2.911,1.107 -2.911,2.729 0,1.986 1.427,3.412 3.722,3.412 0.662,0 1.312,-0.125 1.963,-0.387 z"
               style="fill:#000000;fill-opacity:1;fill-rule:nonzero;stroke:none"
               id="path112"
               inkscape:connector-curvature="0" /></g><g
             id="g114"
             transform="translate(60.156,63.9758)"><path
               d="m 0,0 -0.616,-2.945 c -0.046,-0.206 -0.069,-0.4 -0.069,-0.582 0,-0.571 0.274,-0.879 0.776,-0.879 0.742,0 1.313,0.65 1.587,1.929 L 2.203,0 H 4.258 L 3.002,-5.867 H 1.164 l 0.229,0.993 c -0.662,-0.754 -1.416,-1.142 -2.238,-1.142 -1.21,0 -1.918,0.731 -1.918,2.043 0,0.389 0.069,0.936 0.217,1.633 L -2.055,0 Z"
               style="fill:#000000;fill-opacity:1;fill-rule:nonzero;stroke:none"
               id="path116"
               inkscape:connector-curvature="0" /></g><g
             id="g118"
             transform="translate(69.8362,62.298)"><path
               d="m 0,0 c -0.365,0.103 -0.662,0.16 -0.891,0.16 -0.936,0 -1.346,-0.582 -1.609,-1.816 L -3.048,-4.19 h -2.055 l 1.199,5.891 h 1.861 L -2.26,0.628 c 0.571,0.822 1.141,1.21 1.94,1.21 0.251,0 0.503,-0.046 0.777,-0.126 z"
               style="fill:#000000;fill-opacity:1;fill-rule:nonzero;stroke:none"
               id="path120"
               inkscape:connector-curvature="0" /></g></g></g><g
         id="g122"
         transform="translate(73.2838,63.9874)"><path
           d="M 0,0 -1.279,-5.879 H -3.276 L -1.998,0 Z M 0.422,2.044 0.217,0.993 h -1.998 l 0.194,1.051 z"
           style="fill:#000000;fill-opacity:1;fill-rule:nonzero;stroke:none"
           id="path124"
           inkscape:connector-curvature="0" /></g><g
         id="g126"><g
           id="g128"
           clip-path="url(#clipPath132)"><g
             id="g134"
             transform="translate(77.5071,63.9758)"><path
               d="M 0,0 H 1.45 L 1.153,-1.404 H -0.296 L -0.731,-3.448 C -0.788,-3.699 -0.81,-3.87 -0.81,-3.961 c 0,-0.423 0.182,-0.605 0.639,-0.605 0.16,0 0.388,0.034 0.673,0.114 L 0.205,-5.856 c -0.467,-0.08 -0.844,-0.126 -1.129,-0.126 -1.222,0 -1.918,0.651 -1.918,1.781 0,0.206 0.022,0.4 0.057,0.583 l 0.468,2.214 H -3.516 L -3.219,0 h 1.199 l 0.296,1.393 2.147,0.57 z"
               style="fill:#000000;fill-opacity:1;fill-rule:nonzero;stroke:none"
               id="path136"
               inkscape:connector-curvature="0" /></g><g
             id="g138"
             transform="translate(80.8175,60.517)"><path
               d="m 0,0 c 0.08,-0.867 0.559,-1.267 1.507,-1.267 0.628,0 1.324,0.148 1.998,0.445 L 3.276,-2.272 C 2.58,-2.488 1.849,-2.603 1.107,-2.603 c -1.849,0 -2.945,1.085 -2.945,2.751 0,0.96 0.411,1.952 1.05,2.58 0.617,0.605 1.507,0.925 2.615,0.925 1.632,0 2.522,-0.925 2.522,-2.534 C 4.349,0.788 4.304,0.411 4.212,0 Z M 2.671,1.404 C 2.671,2.055 2.272,2.466 1.644,2.466 1.016,2.466 0.491,1.975 0.263,1.13 H 2.648 C 2.66,1.222 2.671,1.313 2.671,1.404 M 1.792,5.913 H 3.927 V 5.662 L 2.044,4.269 H 0.697 v 0.137 z"
               style="fill:#000000;fill-opacity:1;fill-rule:nonzero;stroke:none"
               id="path140"
               inkscape:connector-curvature="0" /></g><g
             id="g142"
             transform="translate(90.5547,55.9279)"><path
               d="m 0,0 h -2.055 l 1.678,8.105 H 1.461 L 1.233,7.066 c 0.571,0.765 1.301,1.153 2.146,1.153 1.393,0 2.295,-1.005 2.295,-2.625 0,-2.135 -1.279,-3.574 -3.105,-3.574 -0.857,0 -1.542,0.4 -1.941,1.142 z m 2.557,6.689 c -0.81,0 -1.541,-0.856 -1.541,-1.917 0,-0.765 0.434,-1.245 1.085,-1.245 0.787,0 1.472,0.857 1.472,1.987 0,0.73 -0.399,1.175 -1.016,1.175"
               style="fill:#000000;fill-opacity:1;fill-rule:nonzero;stroke:none"
               id="path144"
               inkscape:connector-curvature="0" /></g><g
             id="g146"
             transform="translate(99.7098,63.9758)"><path
               d="m 0,0 -0.616,-2.945 c -0.046,-0.206 -0.069,-0.4 -0.069,-0.582 0,-0.571 0.274,-0.879 0.776,-0.879 0.742,0 1.313,0.65 1.587,1.929 L 2.203,0 H 4.258 L 3.002,-5.867 H 1.165 l 0.228,0.993 c -0.662,-0.754 -1.416,-1.142 -2.238,-1.142 -1.21,0 -1.918,0.731 -1.918,2.043 0,0.389 0.069,0.936 0.217,1.633 L -2.055,0 Z"
               style="fill:#000000;fill-opacity:1;fill-rule:nonzero;stroke:none"
               id="path148"
               inkscape:connector-curvature="0" /></g><g
             id="g150"
             transform="translate(107.8602,66.0309)"><path
               d="m 0,0 -0.616,-2.797 c 0.548,0.605 1.187,0.913 1.952,0.913 1.381,0 2.283,-1.005 2.283,-2.625 0,-2.124 -1.279,-3.574 -3.105,-3.574 -0.925,0 -1.61,0.446 -2.066,1.347 L -1.838,-7.923 H -3.687 L -2.032,0 Z m 0.502,-3.414 c -0.81,0 -1.541,-0.856 -1.541,-1.917 0,-0.765 0.434,-1.245 1.085,-1.245 0.787,0 1.473,0.857 1.473,1.987 0,0.73 -0.4,1.175 -1.017,1.175"
               style="fill:#000000;fill-opacity:1;fill-rule:nonzero;stroke:none"
               id="path152"
               inkscape:connector-curvature="0" /></g></g></g><g
         id="g154"
         transform="translate(115.5886,66.019)"><path
           d="M 0,0 -1.712,-7.911 H -3.744 L -2.032,0 Z"
           style="fill:#000000;fill-opacity:1;fill-rule:nonzero;stroke:none"
           id="path156"
           inkscape:connector-curvature="0" /></g><g
         id="g158"
         transform="translate(118.8762,63.9874)"><path
           d="M 0,0 -1.278,-5.879 H -3.276 L -1.998,0 Z M 0.423,2.044 0.217,0.993 H -1.78 l 0.194,1.051 z"
           style="fill:#000000;fill-opacity:1;fill-rule:nonzero;stroke:none"
           id="path160"
           inkscape:connector-curvature="0" /></g><g
         id="g162"><g
           id="g164"
           clip-path="url(#clipPath168)"><g
             id="g170"
             transform="translate(126.6843,63.9758)"><path
               d="m 0,0 -1.735,-8.036 h -2.021 l 0.685,2.911 c -0.548,-0.617 -1.187,-0.914 -1.951,-0.914 -1.382,0 -2.295,0.993 -2.295,2.615 0,2.134 1.289,3.584 3.116,3.584 0.948,0 1.621,-0.468 2.066,-1.347 L -1.861,0 Z m -3.744,-1.347 c -0.788,0 -1.462,-0.845 -1.462,-2.02 0,-0.685 0.4,-1.142 1.005,-1.142 0.822,0 1.553,0.833 1.553,1.952 0,0.719 -0.457,1.21 -1.096,1.21"
               style="fill:#000000;fill-opacity:1;fill-rule:nonzero;stroke:none"
               id="path172"
               inkscape:connector-curvature="0" /></g><g
             id="g174"
             transform="translate(129.9495,63.9758)"><path
               d="m 0,0 -0.617,-2.945 c -0.045,-0.206 -0.068,-0.4 -0.068,-0.582 0,-0.571 0.273,-0.879 0.776,-0.879 0.741,0 1.313,0.65 1.586,1.929 L 2.203,0 H 4.257 L 3.001,-5.867 H 1.164 l 0.228,0.993 c -0.662,-0.754 -1.416,-1.142 -2.238,-1.142 -1.209,0 -1.917,0.731 -1.917,2.043 0,0.389 0.068,0.936 0.217,1.633 L -2.055,0 Z"
               style="fill:#000000;fill-opacity:1;fill-rule:nonzero;stroke:none"
               id="path176"
               inkscape:connector-curvature="0" /></g><g
             id="g178"
             transform="translate(136.4562,60.517)"><path
               d="m 0,0 c 0.079,-0.867 0.559,-1.267 1.507,-1.267 0.628,0 1.323,0.148 1.997,0.445 L 3.276,-2.272 C 2.579,-2.488 1.849,-2.603 1.107,-2.603 c -1.85,0 -2.945,1.085 -2.945,2.751 0,0.96 0.411,1.952 1.05,2.58 0.616,0.605 1.507,0.925 2.614,0.925 1.632,0 2.523,-0.925 2.523,-2.534 C 4.349,0.788 4.303,0.411 4.212,0 Z m 2.671,1.404 c 0,0.651 -0.4,1.062 -1.027,1.062 C 1.016,2.466 0.491,1.975 0.263,1.13 H 2.648 C 2.66,1.222 2.671,1.313 2.671,1.404"
               style="fill:#000000;fill-opacity:1;fill-rule:nonzero;stroke:none"
               id="path180"
               inkscape:connector-curvature="0" /></g></g></g><path
         d="m 160.726,58.108 h -13.62 v -8.349 h 13.62 z"
         style="fill:#006cb7;fill-opacity:1;fill-rule:nonzero;stroke:none"
         id="path182"
         inkscape:connector-curvature="0" /><g
         id="g184"><g
           id="g186"
           clip-path="url(#clipPath190)"><g
             id="g192"
             transform="translate(153.9161,57.6713)"><path
               d="m 0,0 c -0.1,-0.183 -0.323,-0.447 -0.697,-0.917 -0.434,-0.543 -0.358,-1.265 -0.151,-1.695 0.236,-0.492 0.372,-0.903 0.48,-1.292 0.149,-0.563 0.05,-1.318 0.061,-1.251 h -0.379 c 0,0.923 -0.286,1.79 -0.981,2.175 -0.986,0.546 -1.962,-0.402 -1.652,-1.389 0.163,-0.516 0.454,-0.691 0.536,-0.691 0,0 -0.135,0.57 0.276,0.861 0.388,0.274 0.866,0.107 1.089,-0.218 0.21,-0.311 0.243,-0.738 0.243,-0.738 h -0.71 V -5.68 l 1.427,0.002 c 0,0 -0.038,-0.741 -0.819,-0.67 0,0 0.096,-0.583 0.819,-0.277 0,0 -0.038,-0.613 0.458,-0.919 0.495,0.306 0.459,0.919 0.459,0.919 0.723,-0.306 0.82,0.277 0.82,0.277 -0.784,-0.071 -0.82,0.67 -0.82,0.67 L 1.885,-5.68 v 0.525 H 1.176 c 0,0 0.034,0.427 0.244,0.738 0.221,0.325 0.7,0.492 1.087,0.218 0.411,-0.291 0.278,-0.861 0.278,-0.861 0.082,0 0.37,0.175 0.536,0.691 C 3.63,-3.382 2.654,-2.434 1.668,-2.98 0.972,-3.365 0.686,-4.232 0.686,-5.155 H 0.309 c 0.009,-0.067 -0.09,0.688 0.06,1.251 0.107,0.389 0.244,0.8 0.481,1.292 0.205,0.43 0.282,1.152 -0.153,1.695 C 0.325,-0.447 0.102,-0.183 0,0"
               style="fill:#ffffff;fill-opacity:1;fill-rule:nonzero;stroke:none"
               id="path194"
               inkscape:connector-curvature="0" /></g></g></g><path
         d="M 178.32,58.108 H 164.695 V 49.759 H 178.32 Z"
         style="fill:#006cb7;fill-opacity:1;fill-rule:nonzero;stroke:none"
         id="path196"
         inkscape:connector-curvature="0" /><g
         id="g198"><g
           id="g200"
           clip-path="url(#clipPath204)"><g
             id="g206"
             transform="translate(171.506,57.6713)"><path
               d="m 0,0 c -0.102,-0.183 -0.322,-0.447 -0.699,-0.917 -0.436,-0.543 -0.358,-1.265 -0.152,-1.695 0.238,-0.492 0.373,-0.903 0.48,-1.292 0.149,-0.563 0.052,-1.318 0.064,-1.251 h -0.38 c 0,0.923 -0.285,1.79 -0.982,2.175 -0.987,0.546 -1.961,-0.402 -1.652,-1.389 0.164,-0.516 0.453,-0.691 0.536,-0.691 0,0 -0.134,0.57 0.278,0.861 0.385,0.274 0.864,0.107 1.086,-0.218 0.211,-0.311 0.244,-0.738 0.244,-0.738 h -0.71 V -5.68 l 1.427,0.002 c 0,0 -0.037,-0.741 -0.819,-0.67 0,0 0.095,-0.583 0.819,-0.277 0,0 -0.037,-0.613 0.46,-0.919 0.493,0.306 0.455,0.919 0.455,0.919 0.726,-0.306 0.823,0.277 0.823,0.277 -0.785,-0.071 -0.823,0.67 -0.823,0.67 l 1.43,-0.002 v 0.525 H 1.173 c 0,0 0.037,0.427 0.243,0.738 0.224,0.325 0.703,0.492 1.091,0.218 0.409,-0.291 0.278,-0.861 0.278,-0.861 0.08,0 0.369,0.175 0.531,0.691 C 3.625,-3.382 2.651,-2.434 1.664,-2.98 0.972,-3.365 0.683,-4.232 0.683,-5.155 H 0.309 c 0.009,-0.067 -0.092,0.688 0.06,1.251 0.105,0.389 0.243,0.8 0.477,1.292 0.207,0.43 0.284,1.152 -0.152,1.695 C 0.323,-0.447 0.097,-0.183 0,0"
               style="fill:#ffffff;fill-opacity:1;fill-rule:nonzero;stroke:none"
               id="path208"
               inkscape:connector-curvature="0" /></g></g></g><path
         d="m 160.726,45.783 h -13.62 v -8.347 h 13.62 z"
         style="fill:#006cb7;fill-opacity:1;fill-rule:nonzero;stroke:none"
         id="path210"
         inkscape:connector-curvature="0" /><g
         id="g212"><g
           id="g214"
           clip-path="url(#clipPath218)"><g
             id="g220"
             transform="translate(153.9161,45.3467)"><path
               d="m 0,0 c -0.1,-0.185 -0.323,-0.447 -0.697,-0.917 -0.434,-0.541 -0.358,-1.263 -0.151,-1.692 0.236,-0.493 0.372,-0.903 0.48,-1.293 0.149,-0.565 0.05,-1.32 0.061,-1.251 h -0.379 c 0,0.921 -0.286,1.788 -0.981,2.173 -0.986,0.551 -1.962,-0.401 -1.652,-1.387 0.163,-0.516 0.454,-0.691 0.536,-0.691 0,0 -0.135,0.57 0.276,0.859 0.388,0.274 0.866,0.11 1.089,-0.215 0.21,-0.312 0.243,-0.739 0.243,-0.739 h -0.71 v -0.525 l 1.427,0.003 c 0,0 -0.038,-0.741 -0.819,-0.673 0,0 0.096,-0.581 0.819,-0.275 0,0 -0.038,-0.613 0.458,-0.919 0.495,0.306 0.459,0.919 0.459,0.919 0.723,-0.306 0.82,0.275 0.82,0.275 -0.784,-0.068 -0.82,0.673 -0.82,0.673 l 1.426,-0.003 v 0.525 H 1.176 c 0,0 0.034,0.427 0.244,0.739 0.221,0.325 0.7,0.489 1.087,0.215 0.411,-0.289 0.278,-0.859 0.278,-0.859 0.082,0 0.37,0.175 0.536,0.691 C 3.63,-3.381 2.654,-2.429 1.668,-2.98 0.972,-3.365 0.686,-4.232 0.686,-5.153 H 0.309 c 0.009,-0.069 -0.09,0.686 0.06,1.251 0.107,0.39 0.244,0.8 0.481,1.293 0.205,0.429 0.282,1.151 -0.153,1.692 C 0.325,-0.447 0.102,-0.185 0,0"
               style="fill:#ffffff;fill-opacity:1;fill-rule:nonzero;stroke:none"
               id="path222"
               inkscape:connector-curvature="0" /></g></g></g><path
         d="M 178.32,45.783 H 164.695 V 37.436 H 178.32 Z"
         style="fill:#006cb7;fill-opacity:1;fill-rule:nonzero;stroke:none"
         id="path224"
         inkscape:connector-curvature="0" /><g
         id="g226"><g
           id="g228"
           clip-path="url(#clipPath232)"><g
             id="g234"
             transform="translate(171.506,45.3467)"><path
               d="m 0,0 c -0.102,-0.185 -0.322,-0.447 -0.699,-0.917 -0.436,-0.541 -0.358,-1.263 -0.152,-1.692 0.238,-0.493 0.373,-0.903 0.48,-1.293 0.149,-0.565 0.052,-1.32 0.064,-1.251 h -0.38 c 0,0.921 -0.285,1.788 -0.982,2.173 -0.987,0.551 -1.961,-0.401 -1.652,-1.387 0.164,-0.516 0.453,-0.691 0.536,-0.691 0,0 -0.134,0.57 0.278,0.859 0.385,0.274 0.864,0.11 1.086,-0.215 0.211,-0.312 0.244,-0.739 0.244,-0.739 h -0.71 v -0.525 l 1.427,0.003 c 0,0 -0.037,-0.741 -0.819,-0.673 0,0 0.095,-0.581 0.819,-0.275 0,0 -0.037,-0.613 0.46,-0.919 0.493,0.306 0.455,0.919 0.455,0.919 0.726,-0.306 0.823,0.275 0.823,0.275 -0.785,-0.068 -0.823,0.673 -0.823,0.673 l 1.43,-0.003 v 0.525 H 1.173 c 0,0 0.037,0.427 0.243,0.739 0.224,0.325 0.703,0.489 1.091,0.215 0.409,-0.289 0.278,-0.859 0.278,-0.859 0.08,0 0.369,0.175 0.531,0.691 C 3.625,-3.381 2.651,-2.429 1.664,-2.98 0.972,-3.365 0.683,-4.232 0.683,-5.153 H 0.309 c 0.009,-0.069 -0.092,0.686 0.06,1.251 0.105,0.39 0.243,0.8 0.477,1.293 C 1.053,-2.18 1.13,-1.458 0.694,-0.917 0.323,-0.447 0.097,-0.185 0,0"
               style="fill:#ffffff;fill-opacity:1;fill-rule:nonzero;stroke:none"
               id="path236"
               inkscape:connector-curvature="0" /></g></g></g></g></g></svg>